<?xml version="1.0" standalone="no"?>
<!DOCTYPE svg PUBLIC "-//W3C//DTD SVG 20010904//EN"
 "http://www.w3.org/TR/2001/REC-SVG-20010904/DTD/svg10.dtd">
<svg version="1.0" xmlns="http://www.w3.org/2000/svg"
 width="252.000000pt" height="252.000000pt" viewBox="0 0 252.000000 252.000000"
 preserveAspectRatio="xMidYMid meet">
<metadata>
Created by potrace 1.14, written by Peter Selinger 2001-2017
</metadata>
<g transform="translate(0.000000,252.000000) scale(0.100000,-0.100000)"
fill="#000000" stroke="none">
<path d="M1148 2515 c-2 -2 -19 -6 -38 -9 -198 -31 -323 -75 -482 -167 -37
-22 -74 -46 -82 -55 -9 -8 -16 -13 -16 -11 0 3 -17 -9 -37 -26 -174 -149 -277
-282 -367 -472 -43 -91 -97 -284 -100 -355 -1 -14 -4 -29 -7 -35 -4 -5 -7 -62
-8 -125 -1 -87 1 -111 10 -100 9 12 10 11 4 -5 -9 -25 -9 -23 8 -116 41 -215
142 -437 265 -582 85 -101 233 -231 311 -275 111 -63 159 -86 237 -113 49 -17
97 -33 107 -35 9 -2 27 -7 40 -10 12 -3 33 -7 47 -8 14 -1 30 -5 35 -8 10 -6
358 -2 407 4 15 2 30 7 34 11 4 4 17 7 30 7 31 0 166 47 252 87 104 49 236
140 317 220 77 74 145 149 145 158 0 3 8 15 19 26 10 11 29 40 41 64 13 25 27
45 32 45 4 0 8 6 8 14 0 7 10 33 23 57 47 90 92 228 114 349 9 52 12 383 3
400 -4 8 -10 33 -14 55 -11 76 -63 236 -91 279 -9 14 -15 27 -13 29 5 5 -90
163 -107 177 -8 7 -15 16 -15 21 0 21 -193 218 -242 247 -16 9 -28 20 -28 24
0 4 -7 8 -15 8 -8 0 -15 3 -15 8 0 8 -28 25 -135 82 -91 48 -234 98 -292 102
-7 1 -13 4 -13 7 0 3 -17 7 -38 8 -46 3 -64 6 -79 16 -7 5 -13 4 -13 0 0 -5
-9 -9 -19 -9 -11 0 -17 4 -14 8 4 8 -201 10 -209 3z"/>
</g>
</svg>
